<?xml version="1.0" standalone="no"?>
<!DOCTYPE svg PUBLIC "-//W3C//DTD SVG 20010904//EN"
 "http://www.w3.org/TR/2001/REC-SVG-20010904/DTD/svg10.dtd">
<svg version="1.0" xmlns="http://www.w3.org/2000/svg"
 width="193.000000pt" height="194.000000pt" viewBox="0 0 193.000000 194.000000"
 preserveAspectRatio="xMidYMid meet">

<g transform="translate(0.000000,194.000000) scale(0.100000,-0.100000)"
fill="#FFFFFF" stroke="none">
<path d="M943 1916 c321 -58 550 -225 673 -490 61 -133 79 -215 78 -361 -1
-163 -22 -247 -99 -401 -96 -193 -199 -282 -335 -292 -209 -15 -374 153 -358
363 18 221 245 362 455 283 98 -36 191 -142 213 -242 l7 -31 15 36 c54 125 66
328 29 474 -60 233 -222 431 -436 530 -139 65 -200 79 -345 79 -146 0 -233
-20 -369 -86 -69 -33 -102 -57 -177 -132 -107 -106 -167 -195 -217 -321 -43
-107 -56 -162 -67 -275 -43 -453 267 -896 709 -1011 118 -31 321 -36 441 -11
173 36 328 116 462 241 224 206 339 532 294 829 -53 347 -258 615 -577 753
-110 48 -215 70 -359 75 l-115 4 78 -14z"/>
</g>
</svg>
