<?xml version="1.0" standalone="no"?>
<!DOCTYPE svg PUBLIC "-//W3C//DTD SVG 20010904//EN"
 "http://www.w3.org/TR/2001/REC-SVG-20010904/DTD/svg10.dtd">
<svg version="1.0" xmlns="http://www.w3.org/2000/svg"
 width="301.000000pt" height="153.000000pt" viewBox="0 0 301.000000 153.000000"
 preserveAspectRatio="xMidYMid meet">

<g transform="translate(0.000000,153.000000) scale(0.100000,-0.100000)"
fill="#FFFFFF" stroke="none">
<path d="M121 1520 c-18 -5 -50 -24 -70 -44 l-36 -36 -3 -209 -3 -208 30 -26
c17 -14 58 -40 91 -59 l60 -33 0 -195 c0 -139 -3 -199 -12 -208 -16 -16 -23
-15 -42 4 -13 13 -16 46 -16 205 l0 189 -55 0 -55 0 0 -177 c0 -160 2 -181 20
-211 27 -45 76 -72 128 -72 54 0 96 24 125 70 20 32 22 50 25 225 2 112 -1
201 -7 216 -7 19 -36 42 -95 75 l-86 49 0 186 c0 197 4 215 47 207 16 -3 18
-20 21 -196 l2 -192 61 0 61 0 -4 168 c-3 146 -6 171 -23 202 -34 56 -100 84
-164 70z"/>
<path d="M1355 1515 c-48 -17 -80 -52 -94 -103 -7 -23 -11 -210 -11 -499 l0
-463 60 0 60 0 2 253 3 252 30 0 30 0 3 -252 2 -253 55 0 55 0 0 484 0 483
-22 33 c-46 67 -105 89 -173 65z m73 -57 c9 -9 12 -74 12 -230 l0 -218 -35 0
-35 0 0 223 c0 123 3 227 7 230 10 11 38 8 51 -5z"/>
<path d="M2783 1514 c-18 -9 -42 -31 -53 -49 -19 -31 -20 -49 -20 -475 0 -432
1 -443 21 -477 55 -89 185 -89 247 1 22 32 22 39 20 267 l-3 234 -67 3 -68 3
0 -31 c0 -20 5 -30 15 -30 13 0 15 -31 15 -218 0 -156 -3 -221 -12 -230 -17
-17 -45 -15 -52 4 -3 9 -6 224 -6 479 0 410 2 464 16 476 11 9 20 10 32 2 15
-9 17 -35 20 -197 l2 -186 55 0 55 0 0 163 c0 134 -3 168 -18 197 -36 72 -125
100 -199 64z"/>
<path d="M378 1512 c-33 -3 -38 -7 -38 -28 0 -20 5 -24 30 -24 l30 0 0 -505 0
-505 60 0 60 0 0 505 0 505 30 0 c26 0 30 4 30 28 l0 27 -83 0 c-45 0 -99 -1
-119 -3z"/>
<path d="M650 983 l0 -533 55 0 55 0 0 249 c0 141 4 252 9 255 5 4 21 2 35 -4
l26 -10 0 -245 0 -245 56 0 55 0 -3 229 -3 230 -29 30 -30 31 30 31 29 30 3
189 c3 157 1 194 -13 219 -27 53 -58 65 -172 71 l-103 5 0 -532z m174 461 c3
-9 6 -104 6 -213 0 -208 -3 -221 -47 -221 l-23 0 0 225 0 225 29 0 c17 0 31
-6 35 -16z"/>
<path d="M2167 1513 c-4 -3 -7 -244 -7 -535 l0 -528 60 0 60 0 0 535 0 535
-53 0 c-30 0 -57 -3 -60 -7z"/>
<path d="M1010 980 l0 -530 90 0 c89 0 90 0 90 24 0 21 -6 25 -32 28 l-33 3
-3 219 c-3 233 -2 236 46 236 17 0 22 6 22 24 0 21 -6 25 -32 28 l-33 3 -3
223 -2 222 35 0 c31 0 35 3 35 25 0 25 -1 25 -90 25 l-90 0 0 -530z"/>
<path d="M1620 975 l0 -535 55 0 55 0 0 510 0 510 23 0 c13 0 28 -5 35 -12 9
-9 12 -136 12 -510 l0 -498 55 0 55 0 2 508 3 507 24 3 c51 8 51 6 51 -525 l0
-493 55 0 56 0 -3 488 c-3 542 -1 519 -71 562 -29 18 -51 20 -219 20 l-188 0
0 -535z"/>
<path d="M2340 980 l0 -530 53 0 54 0 6 114 c3 63 3 228 0 368 -3 139 -3 315
2 391 7 132 8 137 29 137 46 0 46 4 46 -517 l0 -493 55 0 55 0 0 470 c0 516 0
513 -59 563 -31 26 -38 27 -137 27 l-104 0 0 -530z"/>
<path d="M2603 291 c-51 -32 -68 -67 -68 -136 1 -38 7 -72 19 -93 32 -61 129
-79 179 -35 65 58 62 213 -6 258 -41 26 -88 29 -124 6z m106 -67 c31 -39 29
-117 -4 -149 -31 -32 -65 -32 -95 0 -32 34 -35 122 -6 154 28 31 79 28 105 -5z"/>
<path d="M275 275 c-51 -50 -25 -102 70 -138 39 -15 61 -30 64 -42 7 -41 -72
-61 -118 -29 -21 15 -24 15 -43 -4 l-21 -20 29 -15 c46 -23 89 -29 133 -17 47
12 71 42 71 87 0 41 -22 61 -97 88 -44 15 -58 25 -58 40 0 16 8 21 38 23 21 2
45 -2 53 -9 12 -10 19 -8 36 8 l21 21 -31 16 c-49 25 -118 21 -147 -9z"/>
<path d="M720 275 c0 -22 4 -25 40 -25 l40 0 0 -120 0 -120 25 0 25 0 0 120 0
120 40 0 c36 0 40 3 40 25 l0 25 -105 0 -105 0 0 -25z"/>
<path d="M1200 193 c0 -90 3 -113 20 -140 34 -57 121 -61 168 -8 20 24 22 36
22 141 l0 114 -25 0 -25 0 0 -101 c0 -115 -8 -139 -50 -139 -51 0 -60 20 -60
136 l0 104 -25 0 -25 0 0 -107z"/>
<path d="M1720 155 l0 -145 63 0 c106 0 161 50 161 146 0 92 -59 144 -166 144
l-58 0 0 -145z m129 80 c83 -42 48 -175 -45 -175 l-34 0 0 95 0 95 25 0 c15 0
39 -7 54 -15z"/>
<path d="M2210 155 l0 -145 25 0 25 0 0 145 0 145 -25 0 -25 0 0 -145z"/>
</g>
</svg>
